<svg xmlns="http://www.w3.org/2000/svg" version="1.1" xmlns:xlink="http://www.w3.org/1999/xlink" xmlns:svgjs="http://svgjs.com/svgjs" width="1440" height="700" preserveAspectRatio="none" viewBox="0 0 1440 700"><g mask="url(&quot;#SvgjsMask3031&quot;)" fill="none"><rect width="1440" height="700" x="0" y="0" fill="url(#SvgjsLinearGradient3032)"></rect><path d="M899.786,741.018C928.716,741.075,961.977,740.225,976.546,715.231C991.174,690.136,977.562,659.473,961.376,635.354C947.321,614.411,924.954,602.5,899.786,600.847C870.749,598.94,838.558,602.033,822.389,626.228C804.779,652.578,805.827,688.653,823.545,714.931C839.639,738.801,870.997,740.962,899.786,741.018" fill="rgba(24, 174, 30, 0.37)" class="triangle-float2"></path><path d="M428.516,103.975C458.433,104.134,482.425,80.931,495.856,54.198C507.924,30.177,503.781,2.882,491.257,-20.904C477.609,-46.825,457.778,-72.297,428.516,-73.697C397.352,-75.188,368.828,-55.132,354.438,-27.449C341.036,-1.667,348.133,28.178,362.401,53.491C376.994,79.381,398.797,103.817,428.516,103.975" fill="rgba(24, 174, 30, 0.37)" class="triangle-float2"></path><path d="M1284.119,672.922C1320.586,675.261,1361.167,666.169,1378.765,634.144C1395.965,602.844,1378.44,566.248,1359.311,536.087C1341.907,508.646,1316.591,486.124,1284.119,484.913C1249.57,483.624,1215.143,499.766,1198.54,530.091C1182.473,559.438,1191.202,594.517,1208.398,623.217C1225.03,650.976,1251.825,670.851,1284.119,672.922" fill="rgba(24, 174, 30, 0.37)" class="triangle-float3"></path><path d="M109.651,156.866C146.076,157.843,182.424,139.47,198.49,106.765C213.211,76.799,196.927,43.611,179.181,15.331C162.902,-10.61,140.275,-34.432,109.651,-34.807C78.498,-35.188,52.959,-13.23,37.112,13.594C20.936,40.975,14.338,73.837,28.703,102.21C44.465,133.342,74.769,155.93,109.651,156.866" fill="rgba(24, 174, 30, 0.37)" class="triangle-float1"></path><path d="M210.653,795.881C263.384,796.617,315.157,774.879,342.698,729.906C371.438,682.975,372.626,623.699,345.37,575.891C317.861,527.639,266.192,497.605,210.653,498.291C156.242,498.963,107.868,531.505,81.58,579.149C56.175,625.192,57.932,681.126,84.84,726.308C111.121,770.438,159.295,795.164,210.653,795.881" fill="rgba(24, 174, 30, 0.37)" class="triangle-float1"></path><path d="M916.552,687.387C957.014,687.7,1001.458,685.554,1024.159,652.059C1049.169,615.157,1048.391,565.271,1025.063,527.283C1002.69,490.85,959.306,476.977,916.552,476.825C873.478,476.672,828.957,489.63,806.701,526.509C783.809,564.442,786.807,613.827,811.791,650.416C834.172,683.194,876.863,687.08,916.552,687.387" fill="rgba(24, 174, 30, 0.37)" class="triangle-float3"></path><path d="M1180.904,161.086C1199.879,160.755,1220.267,158.23,1230.594,142.307C1241.695,125.191,1240.424,102.81,1230.116,85.205C1219.916,67.784,1201.06,56.33,1180.904,57.44C1162.293,58.465,1149.961,74.236,1140.264,90.154C1129.988,107.024,1118.298,126.955,1128.118,144.094C1137.967,161.284,1161.095,161.431,1180.904,161.086" fill="rgba(24, 174, 30, 0.37)" class="triangle-float2"></path><path d="M1211.771,391.511C1237.674,392.892,1265.395,384.272,1277.907,361.549C1290.113,339.383,1278.817,313.863,1266.787,291.601C1253.877,267.711,1238.92,239.712,1211.771,239.159C1184.109,238.596,1164.582,264.276,1152.731,289.278C1142.641,310.566,1145.038,334.692,1156.819,355.092C1168.598,375.488,1188.251,390.257,1211.771,391.511" fill="rgba(24, 174, 30, 0.37)" class="triangle-float1"></path><path d="M1408.103,305.711C1438.473,306.174,1472.479,304.339,1488.704,278.662C1505.709,251.75,1499.004,216.325,1481.306,189.864C1465.461,166.173,1436.599,158.682,1408.103,158.153C1378.368,157.601,1346.201,162.091,1330.041,187.058C1312.721,213.818,1314.134,249.635,1331.654,276.265C1347.741,300.717,1378.837,305.264,1408.103,305.711" fill="rgba(24, 174, 30, 0.37)" class="triangle-float2"></path><path d="M466.075,597.093C490.39,597.324,516.989,593.726,529.738,573.02C542.949,551.564,537.93,523.833,524.19,502.712C511.66,483.452,489.032,474.214,466.075,475.162C444.772,476.042,427.179,489.211,415.721,507.192C403.125,526.959,393.024,551.378,404.478,571.828C416.102,592.58,442.29,596.867,466.075,597.093" fill="rgba(24, 174, 30, 0.37)" class="triangle-float1"></path><path d="M714.464,479.998C764.55,478.691,798.277,434.125,822.02,390.005C844.221,348.751,856.953,299.735,833.204,259.353C809.71,219.405,760.755,204.901,714.464,207.123C672.18,209.153,636.36,233.961,613.956,269.879C589.909,308.431,577.115,354.897,596.722,395.886C619.03,442.521,662.786,481.347,714.464,479.998" fill="rgba(24, 174, 30, 0.37)" class="triangle-float1"></path><path d="M79.57,603.406C113.191,601.382,136.602,573.843,153.211,544.541C169.522,515.764,181.073,481.613,164.99,452.708C148.568,423.192,113.316,410.737,79.57,412.188C48.339,413.531,22.812,433.195,5.995,459.546C-12.541,488.59,-26.902,523.762,-11.213,554.438C5.567,587.247,42.786,605.62,79.57,603.406" fill="rgba(24, 174, 30, 0.37)" class="triangle-float1"></path><path d="M1285.582,934.859C1349.237,934.424,1401.855,888.955,1431.513,832.63C1459.108,780.224,1454.678,719.106,1426.666,666.922C1396.833,611.345,1348.66,560.648,1285.582,560.772C1222.657,560.895,1175.592,612.236,1145.454,667.474C1116.804,719.985,1108.391,781.664,1136.158,834.647C1165.995,891.58,1221.305,935.298,1285.582,934.859" fill="rgba(24, 174, 30, 0.37)" class="triangle-float1"></path><path d="M721.764,123.639C758.9,120.869,780.831,86.343,799.35,54.035C817.723,21.981,836.932,-14.625,819.768,-47.342C801.763,-81.663,760.516,-94.481,721.764,-93.859C684.211,-93.256,648.951,-76.14,629.064,-44.279C607.898,-10.369,601.834,32.333,621.153,67.329C641.061,103.391,680.686,126.703,721.764,123.639" fill="rgba(24, 174, 30, 0.37)" class="triangle-float3"></path><path d="M1453.44,500.689C1509.869,504.435,1574.294,503.106,1605.225,455.761C1638.13,405.394,1624.936,338.511,1592.494,287.844C1562.577,241.12,1508.921,218.798,1453.44,218.709C1397.783,218.62,1340.444,238.636,1313.614,287.399C1287.518,334.83,1303.277,392.414,1332.957,437.688C1359.588,478.311,1404.973,497.472,1453.44,500.689" fill="rgba(24, 174, 30, 0.37)" class="triangle-float2"></path><path d="M1035.923,615.137C1074.972,616.602,1114.217,601.162,1134.507,567.767C1155.519,533.183,1156.691,487.679,1133.52,454.502C1112.756,424.771,1072.171,425.523,1035.923,426.612C1002.321,427.621,966.199,431.823,947.979,460.074C928.47,490.325,931.614,529.509,949.372,560.82C967.382,592.575,999.442,613.768,1035.923,615.137" fill="rgba(24, 174, 30, 0.37)" class="triangle-float1"></path></g><defs><mask id="SvgjsMask3031"><rect width="1440" height="700" fill="#ffffff"></rect></mask><linearGradient x1="12.85%" y1="-26.43%" x2="87.15%" y2="126.43%" gradientUnits="userSpaceOnUse" id="SvgjsLinearGradient3032"><stop stop-color="rgba(19, 79, 31, 1)" offset="0"></stop><stop stop-color="rgba(0, 158, 17, 1)" offset="1"></stop></linearGradient><style>
            @keyframes float1 {
                0%{transform: translate(0, 0)}
                50%{transform: translate(-10px, 0)}
                100%{transform: translate(0, 0)}
            }

            .triangle-float1 {
                animation: float1 5s infinite;
            }

            @keyframes float2 {
                0%{transform: translate(0, 0)}
                50%{transform: translate(-5px, -5px)}
                100%{transform: translate(0, 0)}
            }

            .triangle-float2 {
                animation: float2 4s infinite;
            }

            @keyframes float3 {
                0%{transform: translate(0, 0)}
                50%{transform: translate(0, -10px)}
                100%{transform: translate(0, 0)}
            }

            .triangle-float3 {
                animation: float3 6s infinite;
            }
        </style></defs></svg>